<svg xmlns="http://www.w3.org/2000/svg" xmlns:xlink="http://www.w3.org/1999/xlink" viewBox="0 0 2500 4000"><defs><filter id="luminosity-noclip" x="-2299.24" y="-10192" width="4152.32" height="32766" filterUnits="userSpaceOnUse" color-interpolation-filters="sRGB"><feFlood flood-color="#fff" result="bg"/><feBlend in="SourceGraphic" in2="bg"/></filter><mask id="mask" x="-2299.24" y="-10192" width="4152.32" height="32766" maskUnits="userSpaceOnUse"><g filter="url(#luminosity-noclip)"/></mask><radialGradient id="radial-gradient" cx="-32004.45" cy="20716.14" r="8306.14" gradientTransform="matrix(0.18, -0.16, -0.17, -0.19, 9116.37, -1447.39)" gradientUnits="userSpaceOnUse"><stop offset="0.62" stop-color="#fff"/><stop offset="0.66" stop-color="#f7f7f7"/><stop offset="0.71" stop-color="#e0e0e0"/><stop offset="0.77" stop-color="#bababa"/><stop offset="0.84" stop-color="#868686"/><stop offset="0.92" stop-color="#444"/><stop offset="1"/></radialGradient><filter id="luminosity-noclip-2" x="0" y="-10192" width="1111.87" height="32766" filterUnits="userSpaceOnUse" color-interpolation-filters="sRGB"><feFlood flood-color="#fff" result="bg"/><feBlend in="SourceGraphic" in2="bg"/></filter><mask id="mask-2" x="0" y="-10192" width="1111.87" height="32766" maskUnits="userSpaceOnUse"><g filter="url(#luminosity-noclip-2)"/></mask><radialGradient id="radial-gradient-2" cx="-31952.85" cy="20258.54" r="4985.58" gradientTransform="matrix(0.18, -0.16, -0.17, -0.19, 9116.37, -1447.39)" gradientUnits="userSpaceOnUse"><stop offset="0.33" stop-color="#fff"/><stop offset="0.44" stop-color="#fcfcfc"/><stop offset="0.52" stop-color="#f2f2f2"/><stop offset="0.6" stop-color="#e0e0e0"/><stop offset="0.68" stop-color="#c8c8c8"/><stop offset="0.75" stop-color="#a9a9a9"/><stop offset="0.83" stop-color="#838383"/><stop offset="0.89" stop-color="#555"/><stop offset="0.96" stop-color="#222"/><stop offset="1"/></radialGradient><filter id="luminosity-noclip-3" x="-925.61" y="-10192" width="1671.61" height="32766" filterUnits="userSpaceOnUse" color-interpolation-filters="sRGB"><feFlood flood-color="#fff" result="bg"/><feBlend in="SourceGraphic" in2="bg"/></filter><mask id="mask-3" x="-925.61" y="-10192" width="1671.61" height="32766" maskUnits="userSpaceOnUse"><g filter="url(#luminosity-noclip-3)"/></mask><radialGradient id="radial-gradient-3" cx="-31926.97" cy="20032.22" r="3343.83" xlink:href="#radial-gradient"/><filter id="luminosity-noclip-4" x="0" y="-10192" width="745.69" height="32766" filterUnits="userSpaceOnUse" color-interpolation-filters="sRGB"><feFlood flood-color="#fff" result="bg"/><feBlend in="SourceGraphic" in2="bg"/></filter><mask id="mask-4" x="0" y="-10192" width="745.69" height="32766" maskUnits="userSpaceOnUse"><g filter="url(#luminosity-noclip-4)"/></mask><radialGradient id="radial-gradient-4" cx="-31927.13" cy="20032.23" r="3343.63" xlink:href="#radial-gradient-2"/><filter id="luminosity-noclip-5" x="485.26" y="-10192" width="4514.58" height="32766" filterUnits="userSpaceOnUse" color-interpolation-filters="sRGB"><feFlood flood-color="#fff" result="bg"/><feBlend in="SourceGraphic" in2="bg"/></filter><mask id="mask-5" x="485.26" y="-10192" width="4514.58" height="32766" maskUnits="userSpaceOnUse"><g filter="url(#luminosity-noclip-5)"/></mask><radialGradient id="radial-gradient-5" cx="-41622.89" cy="2717.67" r="9030.79" gradientTransform="matrix(-0.18, 0.16, 0.17, 0.19, -5174.15, 10459.9)" xlink:href="#radial-gradient"/><filter id="luminosity-noclip-6" x="486.09" y="-10192" width="2013.91" height="32766" filterUnits="userSpaceOnUse" color-interpolation-filters="sRGB"><feFlood flood-color="#fff" result="bg"/><feBlend in="SourceGraphic" in2="bg"/></filter><mask id="mask-6" x="486.09" y="-10192" width="2013.91" height="32766" maskUnits="userSpaceOnUse"><g filter="url(#luminosity-noclip-6)"/></mask><radialGradient id="radial-gradient-6" cx="-41623.33" cy="2717.69" r="9030.25" gradientTransform="matrix(-0.18, 0.16, 0.17, 0.19, -5174.15, 10459.9)" xlink:href="#radial-gradient-2"/><filter id="luminosity-noclip-7" x="0" y="-10192" width="1852.31" height="32766" filterUnits="userSpaceOnUse" color-interpolation-filters="sRGB"><feFlood flood-color="#fff" result="bg"/><feBlend in="SourceGraphic" in2="bg"/></filter><mask id="mask-7" x="0" y="-10192" width="1852.31" height="32766" maskUnits="userSpaceOnUse"><g filter="url(#luminosity-noclip-7)"/></mask><radialGradient id="radial-gradient-7" cx="-32004.86" cy="20716.15" r="8305.65" xlink:href="#radial-gradient-2"/><filter id="luminosity-noclip-8" x="941.58" y="-10192" width="3492.07" height="32766" filterUnits="userSpaceOnUse" color-interpolation-filters="sRGB"><feFlood flood-color="#fff" result="bg"/><feBlend in="SourceGraphic" in2="bg"/></filter><mask id="mask-8" x="941.58" y="-10192" width="3492.07" height="32766" maskUnits="userSpaceOnUse"><g filter="url(#luminosity-noclip-8)"/></mask><radialGradient id="radial-gradient-8" cx="-41590.95" cy="2435.77" r="6985.4" gradientTransform="matrix(-0.18, 0.16, 0.17, 0.19, -5174.15, 10459.9)" xlink:href="#radial-gradient"/><filter id="luminosity-noclip-9" x="942.22" y="-10192" width="1557.78" height="32766" filterUnits="userSpaceOnUse" color-interpolation-filters="sRGB"><feFlood flood-color="#fff" result="bg"/><feBlend in="SourceGraphic" in2="bg"/></filter><mask id="mask-9" x="942.22" y="-10192" width="1557.78" height="32766" maskUnits="userSpaceOnUse"><g filter="url(#luminosity-noclip-9)"/></mask><radialGradient id="radial-gradient-9" cx="-41591.29" cy="2435.78" r="6984.99" gradientTransform="matrix(-0.18, 0.16, 0.17, 0.19, -5174.15, 10459.9)" xlink:href="#radial-gradient-2"/><filter id="luminosity-noclip-10" x="1539.71" y="-10192" width="2151.79" height="32766" filterUnits="userSpaceOnUse" color-interpolation-filters="sRGB"><feFlood flood-color="#fff" result="bg"/><feBlend in="SourceGraphic" in2="bg"/></filter><mask id="mask-10" x="1539.71" y="-10192" width="2151.79" height="32766" maskUnits="userSpaceOnUse"><g filter="url(#luminosity-noclip-10)"/></mask><radialGradient id="radial-gradient-10" cx="-41549.09" cy="2066.26" r="4304.35" gradientTransform="matrix(-0.18, 0.16, 0.17, 0.19, -5174.15, 10459.9)" xlink:href="#radial-gradient"/><filter id="luminosity-noclip-11" x="1540.11" y="-10192" width="959.89" height="32766" filterUnits="userSpaceOnUse" color-interpolation-filters="sRGB"><feFlood flood-color="#fff" result="bg"/><feBlend in="SourceGraphic" in2="bg"/></filter><mask id="mask-11" x="1540.11" y="-10192" width="959.89" height="32766" maskUnits="userSpaceOnUse"><g filter="url(#luminosity-noclip-11)"/></mask><radialGradient id="radial-gradient-11" cx="-41549.3" cy="2066.27" r="4304.09" gradientTransform="matrix(-0.18, 0.16, 0.17, 0.19, -5174.15, 10459.9)" xlink:href="#radial-gradient-2"/><filter id="luminosity-noclip-12" x="-1851.23" y="-10192" width="3343.23" height="32766" filterUnits="userSpaceOnUse" color-interpolation-filters="sRGB"><feFlood flood-color="#fff" result="bg"/><feBlend in="SourceGraphic" in2="bg"/></filter><mask id="mask-12" x="-1851.23" y="-10192" width="3343.23" height="32766" maskUnits="userSpaceOnUse"><g filter="url(#luminosity-noclip-12)"/></mask><radialGradient id="radial-gradient-12" cx="-31979.18" cy="20493.07" r="6687.66" xlink:href="#radial-gradient"/><filter id="luminosity-noclip-13" x="0" y="-10192" width="1491.38" height="32766" filterUnits="userSpaceOnUse" color-interpolation-filters="sRGB"><feFlood flood-color="#fff" result="bg"/><feBlend in="SourceGraphic" in2="bg"/></filter><mask id="mask-13" x="0" y="-10192" width="1491.38" height="32766" maskUnits="userSpaceOnUse"><g filter="url(#luminosity-noclip-13)"/></mask><radialGradient id="radial-gradient-13" cx="-31979.51" cy="20493.08" r="6687.27" xlink:href="#radial-gradient-2"/><filter id="luminosity-noclip-14" x="-1380.15" y="-10192" width="2492.49" height="32766" filterUnits="userSpaceOnUse" color-interpolation-filters="sRGB"><feFlood flood-color="#fff" result="bg"/><feBlend in="SourceGraphic" in2="bg"/></filter><mask id="mask-14" x="-1380.15" y="-10192" width="2492.49" height="32766" maskUnits="userSpaceOnUse"><g filter="url(#luminosity-noclip-14)"/></mask><radialGradient id="radial-gradient-14" cx="-31952.61" cy="20258.53" r="4985.87" xlink:href="#radial-gradient"/><linearGradient id="linear-gradient" x1="-829.6" y1="770.16" x2="3207.6" y2="3157.69" gradientTransform="matrix(0, 1, 1, 0, -750, 750)" gradientUnits="userSpaceOnUse"><stop offset="0" stop-color="#076ba7"/><stop offset="0.16" stop-color="#0b71ab"/><stop offset="0.37" stop-color="#1583b7"/><stop offset="0.63" stop-color="#26a1cb"/><stop offset="0.91" stop-color="#3dcae6"/><stop offset="1" stop-color="#46d9f0"/></linearGradient><filter id="luminosity-noclip-15" x="-2299.24" y="-2278.01" width="4152.32" height="4161.59" filterUnits="userSpaceOnUse" color-interpolation-filters="sRGB"><feFlood flood-color="#fff" result="bg"/><feBlend in="SourceGraphic" in2="bg"/></filter><mask id="mask-15" x="-2299.24" y="-2278.01" width="4152.32" height="4161.59" maskUnits="userSpaceOnUse"><g filter="url(#luminosity-noclip-15)"><g transform="translate(0 0)"><g mask="url(#mask)"><path d="M1261.55-1546.91c-801.55-874.6-2116.06-979.36-2936-233.94s-834.83,2058.68-33.27,2933.28,2116,979.4,2935.91,234S2063.09-672.24,1261.55-1546.91Z" fill="url(#radial-gradient)" style="mix-blend-mode:multiply"/></g></g></g></mask><filter id="luminosity-noclip-16" x="0" y="0" width="1852.31" height="1882" filterUnits="userSpaceOnUse" color-interpolation-filters="sRGB"><feFlood flood-color="#fff" result="bg"/><feBlend in="SourceGraphic" in2="bg"/></filter><mask id="mask-16" x="0" y="0" width="1852.31" height="1882" maskUnits="userSpaceOnUse"><g filter="url(#luminosity-noclip-16)"><g transform="translate(0 0)"><g mask="url(#mask-7)"><path d="M0,0H1852.31c-13.84,519.55-222.3,1021.17-624.09,1386.44C881.78,1701.4,447,1864.56,0,1882Z" fill="url(#radial-gradient-7)" style="mix-blend-mode:multiply"/></g></g></g></mask><radialGradient id="radial-gradient-15" cx="-32004.86" cy="20716.15" r="8305.65" gradientTransform="matrix(0.18, -0.16, -0.17, -0.19, 9116.37, -1447.39)" gradientUnits="userSpaceOnUse"><stop offset="0.33" stop-color="#076ba7"/><stop offset="0.45" stop-color="#0a6ca7"/><stop offset="0.56" stop-color="#1471a8"/><stop offset="0.65" stop-color="#2678aa"/><stop offset="0.74" stop-color="#3e83ad"/><stop offset="0.82" stop-color="#5d91b0"/><stop offset="0.91" stop-color="#83a1b4"/><stop offset="0.99" stop-color="#b0b5b8"/><stop offset="1" stop-color="#b9b9b9"/></radialGradient><linearGradient id="linear-gradient-2" x1="-750" y1="1586.25" x2="892.49" y2="1586.25" xlink:href="#linear-gradient"/><filter id="luminosity-noclip-17" x="-1851.23" y="-1834.13" width="3343.23" height="3350.69" filterUnits="userSpaceOnUse" color-interpolation-filters="sRGB"><feFlood flood-color="#fff" result="bg"/><feBlend in="SourceGraphic" in2="bg"/></filter><mask id="mask-17" x="-1851.23" y="-1834.13" width="3343.23" height="3350.69" maskUnits="userSpaceOnUse"><g filter="url(#luminosity-noclip-17)"><g transform="translate(0 0)"><g mask="url(#mask-12)"><path d="M1015.73-1245.49C370.36-1949.67-688-2034-1348.15-1433.84s-672.16,1657.53-26.79,2361.71S328.77,1716.43,988.9,1116.29,1661.09-541.25,1015.73-1245.49Z" fill="url(#radial-gradient-12)" style="mix-blend-mode:multiply"/></g></g></g></mask><filter id="luminosity-noclip-18" x="0" y="0" width="1491.38" height="1515.29" filterUnits="userSpaceOnUse" color-interpolation-filters="sRGB"><feFlood flood-color="#fff" result="bg"/><feBlend in="SourceGraphic" in2="bg"/></filter><mask id="mask-18" x="0" y="0" width="1491.38" height="1515.29" maskUnits="userSpaceOnUse"><g filter="url(#luminosity-noclip-18)"><g transform="translate(0 0)"><g mask="url(#mask-13)"><path d="M0,0H1491.38c-11.14,418.31-179,822.19-502.48,1116.29-278.94,253.59-629,385-988.9,399Z" fill="url(#radial-gradient-13)" style="mix-blend-mode:multiply"/></g></g></g></mask><radialGradient id="radial-gradient-16" cx="-31979.51" cy="20493.08" r="6687.27" xlink:href="#radial-gradient-15"/><linearGradient id="linear-gradient-3" x1="-750" y1="1460.84" x2="646.16" y2="1460.84" xlink:href="#linear-gradient"/><filter id="luminosity-noclip-19" x="-1380.15" y="-1367.41" width="2492.49" height="2498.05" filterUnits="userSpaceOnUse" color-interpolation-filters="sRGB"><feFlood flood-color="#fff" result="bg"/><feBlend in="SourceGraphic" in2="bg"/></filter><mask id="mask-19" x="-1380.15" y="-1367.41" width="2492.49" height="2498.05" maskUnits="userSpaceOnUse"><g filter="url(#luminosity-noclip-19)"><g transform="translate(0 0)"><g mask="url(#mask-14)"><path d="M757.26-928.55c-481.14-525-1270.19-587.88-1762.35-140.43s-501.12,1235.75-20,1760.74S245.11,1279.66,737.25,832.23,1238.4-403.52,757.26-928.55Z" fill="url(#radial-gradient-14)" style="mix-blend-mode:multiply"/></g></g></g></mask><filter id="luminosity-noclip-20" x="0" y="0" width="1111.87" height="1129.7" filterUnits="userSpaceOnUse" color-interpolation-filters="sRGB"><feFlood flood-color="#fff" result="bg"/><feBlend in="SourceGraphic" in2="bg"/></filter><mask id="mask-20" x="0" y="0" width="1111.87" height="1129.7" maskUnits="userSpaceOnUse"><g filter="url(#luminosity-noclip-20)"><g transform="translate(0 0)"><g mask="url(#mask-2)"><path d="M0,0H1111.87c-8.31,311.86-133.44,613-374.62,832.23-208,189.06-468.91,287-737.25,297.47Z" fill="url(#radial-gradient-2)" style="mix-blend-mode:multiply"/></g></g></g></mask><radialGradient id="radial-gradient-17" cx="-31952.85" cy="20258.54" r="4985.58" xlink:href="#radial-gradient-15"/><linearGradient id="linear-gradient-4" x1="-5656.64" y1="5398.79" x2="-6951.64" y2="7438.17" gradientTransform="matrix(0.71, -0.71, -0.71, -0.71, 8832.55, 446.46)" xlink:href="#linear-gradient"/><filter id="luminosity-noclip-21" x="-925.61" y="-917.07" width="1671.61" height="1675.35" filterUnits="userSpaceOnUse" color-interpolation-filters="sRGB"><feFlood flood-color="#fff" result="bg"/><feBlend in="SourceGraphic" in2="bg"/></filter><mask id="mask-21" x="-925.61" y="-917.07" width="1671.61" height="1675.35" maskUnits="userSpaceOnUse"><g filter="url(#luminosity-noclip-21)"><g transform="translate(0 0)"><g mask="url(#mask-3)"><path d="M507.86-622.74C185.18-974.84-344-1017-674.07-716.92s-336.09,828.77-13.4,1180.86,851.85,394.28,1181.92,94.2S830.54-270.63,507.86-622.74Z" fill="url(#radial-gradient-3)" style="mix-blend-mode:multiply"/></g></g></g></mask><filter id="luminosity-noclip-22" x="0" y="0" width="745.69" height="757.64" filterUnits="userSpaceOnUse" color-interpolation-filters="sRGB"><feFlood flood-color="#fff" result="bg"/><feBlend in="SourceGraphic" in2="bg"/></filter><mask id="mask-22" x="0" y="0" width="745.69" height="757.64" maskUnits="userSpaceOnUse"><g filter="url(#luminosity-noclip-22)"><g transform="translate(0 0)"><g mask="url(#mask-4)"><path d="M0,0H745.69c-5.57,209.16-89.49,411.09-251.24,558.14C355,684.94,180,750.62,0,757.64Z" fill="url(#radial-gradient-4)" style="mix-blend-mode:multiply"/></g></g></g></mask><radialGradient id="radial-gradient-18" cx="-31927.13" cy="20032.23" r="3343.63" xlink:href="#radial-gradient-15"/><linearGradient id="linear-gradient-5" x1="-5746.64" y1="5781.65" x2="-6615.15" y2="7149.39" gradientTransform="matrix(0.71, -0.71, -0.71, -0.71, 8832.55, 446.46)" xlink:href="#linear-gradient"/><filter id="luminosity-noclip-23" x="485.26" y="1952.09" width="4514.58" height="4524.66" filterUnits="userSpaceOnUse" color-interpolation-filters="sRGB"><feFlood flood-color="#fff" result="bg"/><feBlend in="SourceGraphic" in2="bg"/></filter><mask id="mask-23" x="485.26" y="1952.09" width="4514.58" height="4524.66" maskUnits="userSpaceOnUse"><g filter="url(#luminosity-noclip-23)"><g transform="translate(0 0)"><g mask="url(#mask-5)"><path d="M1128.39,5681.86c871.48,950.91,2300.67,1064.8,3192.1,254.35S5228.16,3697.93,4356.67,2747,2056,1682.19,1164.63,2492.6,256.92,4730.89,1128.39,5681.86Z" fill="url(#radial-gradient-5)" style="mix-blend-mode:multiply"/></g></g></g></mask><filter id="luminosity-noclip-24" x="486.09" y="1953.81" width="2013.91" height="2046.19" filterUnits="userSpaceOnUse" color-interpolation-filters="sRGB"><feFlood flood-color="#fff" result="bg"/><feBlend in="SourceGraphic" in2="bg"/></filter><mask id="mask-24" x="486.09" y="1953.81" width="2013.91" height="2046.19" maskUnits="userSpaceOnUse"><g filter="url(#luminosity-noclip-24)"><g transform="translate(0 0)"><g mask="url(#mask-6)"><path d="M2500,4000H486.09c15.05-564.87,241.7-1110.26,678.54-1507.4C1541.29,2150.17,2014,1972.77,2500,1953.81Z" fill="url(#radial-gradient-6)" style="mix-blend-mode:multiply"/></g></g></g></mask><radialGradient id="radial-gradient-19" cx="-41623.33" cy="2717.69" r="9030.25" gradientTransform="matrix(-0.18, 0.16, 0.17, 0.19, -5174.15, 10459.9)" xlink:href="#radial-gradient-15"/><linearGradient id="linear-gradient-6" x1="3110.22" y1="3328.62" x2="2006.44" y2="1900.91" xlink:href="#linear-gradient"/><filter id="luminosity-noclip-25" x="941.58" y="2415.92" width="3492.07" height="3499.87" filterUnits="userSpaceOnUse" color-interpolation-filters="sRGB"><feFlood flood-color="#fff" result="bg"/><feBlend in="SourceGraphic" in2="bg"/></filter><mask id="mask-25" x="941.58" y="2415.92" width="3492.07" height="3499.87" maskUnits="userSpaceOnUse"><g filter="url(#luminosity-noclip-25)"><g transform="translate(0 0)"><g mask="url(#mask-8)"><path d="M1439.05,5300.94c674.1,735.53,1779.59,823.63,2469.12,196.74s702.09-1731.33,28-2466.87S2156.6,2207.15,1467.08,2834,765,4565.35,1439.05,5300.94Z" fill="url(#radial-gradient-8)" style="mix-blend-mode:multiply"/></g></g></g></mask><filter id="luminosity-noclip-26" x="942.22" y="2417.25" width="1557.78" height="1582.75" filterUnits="userSpaceOnUse" color-interpolation-filters="sRGB"><feFlood flood-color="#fff" result="bg"/><feBlend in="SourceGraphic" in2="bg"/></filter><mask id="mask-26" x="942.22" y="2417.25" width="1557.78" height="1582.75" maskUnits="userSpaceOnUse"><g filter="url(#luminosity-noclip-26)"><g transform="translate(0 0)"><g mask="url(#mask-9)"><path d="M2500,4000H942.22c11.64-436.93,187-858.79,524.86-1166,291.35-264.87,657-402.09,1032.92-416.76Z" fill="url(#radial-gradient-9)" style="mix-blend-mode:multiply"/></g></g></g></mask><radialGradient id="radial-gradient-20" cx="-41591.29" cy="2435.78" r="6984.99" gradientTransform="matrix(-0.18, 0.16, 0.17, 0.19, -5174.15, 10459.9)" xlink:href="#radial-gradient-15"/><linearGradient id="linear-gradient-7" x1="-8071.65" y1="368.35" x2="-9886" y2="3225.6" gradientTransform="matrix(-0.71, 0.71, 0.71, 0.71, -4890.33, 8566.05)" xlink:href="#linear-gradient"/><filter id="luminosity-noclip-27" x="1539.71" y="3023.91" width="2151.79" height="2156.59" filterUnits="userSpaceOnUse" color-interpolation-filters="sRGB"><feFlood flood-color="#fff" result="bg"/><feBlend in="SourceGraphic" in2="bg"/></filter><mask id="mask-27" x="1539.71" y="3023.91" width="2151.79" height="2156.59" maskUnits="userSpaceOnUse"><g filter="url(#luminosity-noclip-27)"><g transform="translate(0 0)"><g mask="url(#mask-10)"><path d="M1846.25,4801.63c415.37,453.23,1096.57,507.51,1521.45,121.23S3800.32,3856,3385,3402.8,2288.4,2895.26,1863.52,3281.53,1430.88,4348.36,1846.25,4801.63Z" fill="url(#radial-gradient-10)" style="mix-blend-mode:multiply"/></g></g></g></mask><filter id="luminosity-noclip-28" x="1540.11" y="3024.72" width="959.89" height="975.28" filterUnits="userSpaceOnUse" color-interpolation-filters="sRGB"><feFlood flood-color="#fff" result="bg"/><feBlend in="SourceGraphic" in2="bg"/></filter><mask id="mask-28" x="1540.11" y="3024.72" width="959.89" height="975.28" maskUnits="userSpaceOnUse"><g filter="url(#luminosity-noclip-28)"><g transform="translate(0 0)"><g mask="url(#mask-11)"><path d="M2500,4000H1540.11c7.17-269.24,115.2-529.18,323.41-718.47,179.53-163.22,404.82-247.77,636.48-256.81Z" fill="url(#radial-gradient-11)" style="mix-blend-mode:multiply"/></g></g></g></mask><radialGradient id="radial-gradient-21" cx="-41549.3" cy="2066.27" r="4304.09" gradientTransform="matrix(-0.18, 0.16, 0.17, 0.19, -5174.15, 10459.9)" xlink:href="#radial-gradient-15"/><linearGradient id="linear-gradient-8" x1="-8218.6" y1="993.47" x2="-9336.58" y2="2754.09" gradientTransform="matrix(-0.71, 0.71, 0.71, 0.71, -4890.33, 8566.05)" xlink:href="#linear-gradient"/></defs><g style="isolation:isolate"><g id="Layer_1" data-name="Layer 1"><rect x="0.1" y="0.29" width="2499.79" height="3999.41" fill="url(#linear-gradient)"/><g mask="url(#mask-15)"><g mask="url(#mask-16)"><path d="M0,0H1852.31c-13.84,519.55-222.3,1021.17-624.09,1386.44C881.78,1701.4,447,1864.56,0,1882Z" transform="translate(0 0)" fill="url(#radial-gradient-15)" style="mix-blend-mode:multiply"/></g></g><path d="M0,0H1672.5c-24.37,412.1-194,817.21-508.85,1132.08C840.75,1455,422.93,1625.1,0,1642.49Z" transform="translate(0 0)" fill="url(#linear-gradient-2)"/><g mask="url(#mask-17)"><g mask="url(#mask-18)"><path d="M0,0H1491.38c-11.14,418.31-179,822.19-502.48,1116.29-278.94,253.59-629,385-988.9,399Z" transform="translate(0 0)" fill="url(#radial-gradient-16)" style="mix-blend-mode:multiply"/></g></g><path d="M0,0H1421.67C1401,350.3,1256.79,694.66,989.14,962.3,714.66,1236.78,359.5,1381.38,0,1396.16Z" transform="translate(0 0)" fill="url(#linear-gradient-3)"/><g mask="url(#mask-19)"><g mask="url(#mask-20)"><path d="M0,0H1111.87c-8.31,311.86-133.44,613-374.62,832.23-208,189.06-468.91,287-737.25,297.47Z" transform="translate(0 0)" fill="url(#radial-gradient-17)" style="mix-blend-mode:multiply"/></g></g><path d="M0,0H1059.9C1044.46,261.16,937,517.89,737.44,717.43,532.8,922.06,268,1029.87,0,1040.88Z" transform="translate(0 0)" fill="url(#linear-gradient-4)"/><g mask="url(#mask-21)"><g mask="url(#mask-22)"><path d="M0,0H745.69c-5.57,209.16-89.49,411.09-251.24,558.14C355,684.94,180,750.62,0,757.64Z" transform="translate(0 0)" fill="url(#radial-gradient-18)" style="mix-blend-mode:multiply"/></g></g><path d="M0,0H710.84A740.07,740.07,0,0,1,494.57,481.15C357.33,618.39,179.75,690.69,0,698.08Z" transform="translate(0 0)" fill="url(#linear-gradient-5)"/><g mask="url(#mask-23)"><g mask="url(#mask-24)"><path d="M2500,4000H486.09c15.05-564.87,241.7-1110.26,678.54-1507.4C1541.29,2150.17,2014,1972.77,2500,1953.81Z" transform="translate(0 0)" fill="url(#radial-gradient-19)" style="mix-blend-mode:multiply"/></g></g><path d="M2500,4000H580.22c28-473,222.66-938,584.08-1299.46C1535,2329.89,2014.54,2134.63,2500,2114.67Z" transform="translate(0 0)" fill="url(#linear-gradient-6)"/><g mask="url(#mask-25)"><g mask="url(#mask-26)"><path d="M2500,4000H942.22c11.64-436.93,187-858.79,524.86-1166,291.35-264.87,657-402.09,1032.92-416.76Z" transform="translate(0 0)" fill="url(#radial-gradient-20)" style="mix-blend-mode:multiply"/></g></g><path d="M2500,4000H1015c21.64-365.89,172.23-725.58,451.79-1005.15,286.7-286.7,657.67-437.73,1033.18-453.17Z" transform="translate(0 0)" fill="url(#linear-gradient-7)"/><g mask="url(#mask-27)"><g mask="url(#mask-28)"><path d="M2500,4000H1540.11c7.17-269.24,115.2-529.18,323.41-718.47,179.53-163.22,404.82-247.77,636.48-256.81Z" transform="translate(0 0)" fill="url(#radial-gradient-21)" style="mix-blend-mode:multiply"/></g></g><path d="M2500,4000H1585c13.34-225.46,106.13-447.1,278.39-619.36C2040,3204,2268.62,3110.91,2500,3101.4Z" transform="translate(0 0)" fill="url(#linear-gradient-8)"/></g></g></svg>