<svg id="Layer_1" data-name="Layer 1" xmlns="http://www.w3.org/2000/svg" viewBox="0 0 195 195"><rect x="2.5" y="2.5" width="190" height="190" rx="20" fill="#00cd7f" stroke="#02a361" stroke-miterlimit="10" stroke-width="5"/><path d="M97.5,28.66c-32,0-58,3.63-58,29v72.46a21.63,21.63,0,0,0,7.25,16.08v12.9A7.27,7.27,0,0,0,54,166.35h7.25a7.27,7.27,0,0,0,7.26-7.26v-7.24h58v7.24a7.27,7.27,0,0,0,7.25,7.25H141a7.27,7.27,0,0,0,7.24-7.25v-12.9a21.59,21.59,0,0,0,7.26-16.08V57.65C155.5,32.29,129.5,28.66,97.5,28.66Zm41,21.67h-82c4-3.84,14.27-7.18,41-7.18S134.5,46.5,138.5,50.33ZM141,64.82V86.63H54V64.82ZM138.5,135.4l-2.1,1.95H58.59L56.5,135.4A7,7,0,0,1,54,130.11v-29h87v29A7,7,0,0,1,138.5,135.4Z" fill="#fff"/><circle cx="72.14" cy="119.24" r="10.87" fill="#fff"/><circle cx="122.86" cy="119.24" r="10.87" fill="#fff"/></svg>